<?xml version="1.0" standalone="no"?>
<!DOCTYPE svg PUBLIC "-//W3C//DTD SVG 20010904//EN"
 "http://www.w3.org/TR/2001/REC-SVG-20010904/DTD/svg10.dtd">
<svg version="1.0" xmlns="http://www.w3.org/2000/svg"
 width="297.000000pt" height="199.000000pt" viewBox="0 0 297.000000 199.000000"
 preserveAspectRatio="xMidYMid meet">

<g transform="translate(0.000000,199.000000) scale(0.100000,-0.100000)"
fill="#000000" stroke="none">
<path d="M0 990 l0 -990 1485 0 1485 0 0 990 0 990 -1485 0 -1485 0 0 -990z
m910 660 l0 -100 -255 0 -255 0 0 100 0 100 255 0 255 0 0 -100z m838 3 l-3
-98 -252 -3 -253 -2 0 100 0 100 255 0 256 0 -3 -97z m830 0 l-3 -98 -252 -3
-253 -2 0 100 0 100 255 0 256 0 -3 -97z m187 -438 l0 -300 -1272 -3 -1273 -2
0 305 0 305 1273 -2 1272 -3 0 -300z m-1855 -470 l0 -135 -255 0 -255 0 0 135
0 135 255 0 255 0 0 -135z m838 -2 l3 -133 -256 0 -255 0 0 135 0 135 253 -2
252 -3 3 -132z m830 0 l3 -133 -256 0 -255 0 0 135 0 135 253 -2 252 -3 3
-132z m-1716 -282 c-81 -28 -127 -80 -142 -164 -17 -88 38 -188 120 -221 22
-9 40 -17 40 -18 0 -2 -67 -2 -150 0 l-150 3 0 205 c0 197 -1 204 -20 204 -19
0 -20 -7 -20 -90 l0 -90 -130 0 -130 0 0 90 c0 83 -1 90 -20 90 -19 0 -20 -7
-20 -205 0 -130 -4 -205 -10 -205 -11 0 -14 402 -3 413 3 4 160 7 347 7 l341
-1 -53 -18z m503 12 c-76 -19 -123 -75 -110 -133 9 -42 44 -66 139 -94 97 -30
124 -53 110 -94 -21 -60 -117 -76 -206 -33 -30 14 -40 16 -48 6 -12 -15 1 -28
51 -49 32 -14 23 -15 -138 -18 -94 -2 -169 0 -166 5 2 4 10 7 16 7 29 0 89 54
112 100 61 120 3 255 -127 295 -39 12 -22 14 172 13 118 0 206 -2 195 -5z
m1395 -167 c0 -96 3 -181 6 -190 5 -14 -9 -16 -115 -16 l-121 0 0 185 0 185
-25 0 -25 0 0 -205 0 -205 -70 0 c-63 0 -70 2 -70 20 0 19 -7 20 -118 20 -65
0 -121 2 -123 4 -2 2 -3 36 -1 75 l4 71 104 0 c97 0 104 1 104 20 0 19 -7 20
-105 20 l-105 0 0 54 c0 30 -3 61 -6 70 -5 13 11 16 117 18 109 3 124 5 127
21 3 16 -9 17 -142 17 l-146 0 0 -211 c0 -188 -2 -210 -16 -205 -9 3 -65 6
-125 6 l-109 0 0 185 0 184 72 3 c60 2 73 6 76 21 3 16 -10 17 -167 17 -164 0
-171 -1 -171 -20 0 -18 7 -20 75 -20 l75 0 0 -184 0 -185 -146 -3 c-80 -2
-148 0 -151 5 -2 4 3 7 12 7 9 0 30 13 46 29 22 23 29 39 29 68 0 55 -36 85
-130 113 -99 29 -120 43 -120 80 0 63 84 96 170 66 44 -15 69 -9 56 13 -4 6
-28 17 -54 25 -42 13 23 15 621 15 l667 1 0 -174z m-1730 101 c104 -69 96
-239 -13 -290 -52 -25 -136 -22 -177 6 -58 39 -75 71 -75 142 0 71 17 103 75
143 47 31 143 31 190 -1z m-490 -252 l0 -95 -130 0 -130 0 0 95 0 95 130 0
130 0 0 -95z"/>
</g>
</svg>
